<?xml version="1.0" encoding="iso-8859-1"?>
<!-- Generator: Adobe Illustrator 19.0.0, SVG Export Plug-In . SVG Version: 6.00 Build 0)  -->
<svg version="1.1" id="Layer_1" xmlns="http://www.w3.org/2000/svg" xmlns:xlink="http://www.w3.org/1999/xlink" x="0px" y="0px"
	 viewBox="0 0 512 512" style="enable-background:new 0 0 512 512;" xml:space="preserve">
<g>
	<g>
		<g>
			<path d="M486.4,76.8H25.6C11.486,76.8,0,88.286,0,102.4v307.2c0,14.114,11.486,25.6,25.6,25.6h460.8
				c14.114,0,25.6-11.486,25.6-25.6V102.4C512,88.286,500.514,76.8,486.4,76.8z M435.2,230.4H76.8v-17.067
				c0-4.702,3.831-8.533,8.533-8.533h341.333c4.702,0,8.533,3.831,8.533,8.533V230.4z M426.667,187.733H85.333
				c-14.114,0-25.6,11.486-25.6,25.6V230.4H17.067v-59.733h51.2h375.467h51.2V230.4h-42.667v-17.067
				C452.267,199.219,440.781,187.733,426.667,187.733z M435.2,153.6H76.8v-17.067c0-4.702,3.831-8.533,8.533-8.533h341.333
				c4.702,0,8.533,3.831,8.533,8.533V153.6z M25.6,93.867h460.8c4.702,0,8.533,3.831,8.533,8.533v51.2h-42.667v-17.067
				c0-14.114-11.486-25.6-25.6-25.6H85.333c-14.114,0-25.6,11.486-25.6,25.6V153.6H17.067v-51.2
				C17.067,97.698,20.898,93.867,25.6,93.867z M486.4,418.133H25.6c-4.702,0-8.533-3.831-8.533-8.533V247.467h51.2h375.467h51.2
				V409.6C494.933,414.302,491.102,418.133,486.4,418.133z"/>
			<path d="M273.067,375.467h-34.133c-4.71,0-8.533,3.823-8.533,8.533s3.823,8.533,8.533,8.533h34.133
				c4.71,0,8.533-3.823,8.533-8.533S277.777,375.467,273.067,375.467z"/>
		</g>
	</g>
</g>
<g>
</g>
<g>
</g>
<g>
</g>
<g>
</g>
<g>
</g>
<g>
</g>
<g>
</g>
<g>
</g>
<g>
</g>
<g>
</g>
<g>
</g>
<g>
</g>
<g>
</g>
<g>
</g>
<g>
</g>
</svg>
